<mxfile host="app.diagrams.net" modified="2020-10-11T13:24:04.162Z" agent="5.0 (X11)" etag="mKnEx5l9-RskyOwzcAmN" version="13.7.9" type="github">
  <diagram id="Quq4UWH3CemYXsQLNBCf" name="Basic pipeline">
    <mxGraphModel dx="1159" dy="657" grid="1" gridSize="10" guides="1" tooltips="1" connect="1" arrows="1" fold="1" page="1" pageScale="1" pageWidth="827" pageHeight="1169" math="0" shadow="0">
      <root>
        <mxCell id="0" />
        <mxCell id="1" parent="0" />
      </root>
    </mxGraphModel>
  </diagram>
</mxfile>
